PathFileType	4	(X/Y/Z)	C:\Users\86182\Documents\cortex\Trimmed_M3_L7.trc
DataRate	CameraRate	NumFrames	NumMarkers	Units	OrigDataRate	OrigDataStartFrame	OrigNumFrames
100.00	100.00	       70	2	mm	100.00	361	       901
Frame#	Time	gripper			box			
		X1	Y1	Z1	X2	Y2	Z2	

361	3.600	273.48447	149.96260	293.17316	274.76202	148.27795	157.30911	
362	3.610	273.49258	149.93173	293.15021	274.80142	148.28271	157.32442	
363	3.620	273.49173	149.93904	293.13699	274.80222	148.27200	157.31062	
364	3.630	273.49158	149.94307	293.13971	274.82996	148.28181	157.30652	
365	3.640	273.49066	149.92729	293.11060	274.83914	148.25410	157.27956	
366	3.650	273.48871	149.92111	293.07803	274.86102	148.23131	157.27733	
367	3.660	273.48871	149.92111	293.07803	274.85498	148.23564	157.27800	
368	3.670	273.48557	149.91962	293.07770	274.86151	148.23232	157.27721	
369	3.680	273.48895	149.92552	293.08618	274.82352	148.26079	157.28146	
370	3.690	273.49069	149.92480	293.10828	274.80884	148.26959	157.28319	
371	3.700	273.49094	149.92560	293.11212	274.85571	148.23146	157.27805	
372	3.710	273.49261	149.92020	293.12766	274.86102	148.23131	157.27733	
373	3.720	273.49155	149.92696	293.12164	274.86310	148.25569	157.28848	
374	3.730	273.44434	149.90167	293.06400	274.82608	148.26079	157.28111	
375	3.740	273.39575	149.87938	293.05334	274.69946	148.17392	157.27574	
376	3.750	273.32785	149.86400	292.96307	274.72067	148.14337	157.23494	
377	3.760	273.32077	149.83881	292.91486	274.79694	148.06509	157.15573	
378	3.770	273.37143	149.82915	292.87851	274.83926	148.05582	157.11971	
379	3.780	273.39859	149.83020	292.85892	274.76056	148.01239	157.11705	
380	3.790	273.42978	149.82523	292.84570	274.68848	148.00975	157.01622	
381	3.800	273.49472	149.81413	292.81931	274.74026	148.01131	157.08766	
382	3.810	273.48792	149.81555	292.82166	274.75369	148.01730	157.08589	
383	3.820	273.43311	149.82547	292.84314	274.84064	148.05994	157.10558	
384	3.830	273.43109	149.82291	292.84830	274.83084	148.06828	157.12442	
385	3.840	273.41037	149.82828	292.85400	274.85861	148.06290	157.11122	
386	3.850	273.38812	149.82642	292.87149	274.82870	148.04713	157.12814	
387	3.860	273.41760	149.83463	292.88272	274.83463	148.06641	157.12817	
388	3.870	273.37134	149.82996	292.87732	274.89319	148.05020	157.10579	
389	3.880	273.40128	149.82701	292.86191	274.84772	148.04330	157.11497	
390	3.890	273.44107	149.82063	292.84509	274.82343	148.03001	157.12074	
391	3.900	273.50494	149.81198	292.81573	274.77362	148.01556	157.12773	
392	3.910	273.49130	149.81485	292.82050	274.75446	148.01010	157.11699	
393	3.920	273.49811	149.81342	292.81812	274.77563	148.01727	157.12442	
394	3.930	273.46802	149.81688	292.83286	274.76654	148.01361	157.12354	
395	3.940	273.44873	149.82251	292.83722	274.80276	148.03439	157.12149	
396	3.950	273.40057	149.82722	292.86206	274.81891	148.04771	157.12567	
397	3.960	273.41061	149.82475	292.85910	274.78003	148.04872	157.14282	
398	3.970	273.41180	149.82143	292.86328	274.83792	148.06755	157.12033	
399	3.980	273.41629	149.83287	292.88620	274.88287	148.05109	157.10765	
400	3.990	273.42865	149.82062	292.85333	274.87985	148.05670	157.10774	
401	4.000	273.48730	149.81316	292.82565	274.79333	148.02783	157.12662	
402	4.010	273.49472	149.81413	292.81931	274.79840	148.03139	157.12350	
403	4.020	273.50269	149.81215	292.81699	274.74319	148.00720	157.10936	
404	4.030	273.50494	149.81198	292.81573	274.69507	148.07419	157.10262	
405	4.040	273.48792	149.81555	292.82166	274.80447	148.03654	157.11353	
406	4.050	273.46909	149.81731	292.83154	274.81686	148.04341	157.11896	
407	4.060	273.49829	149.81244	292.81946	274.79770	148.03082	157.12462	
408	4.070	273.42822	149.82326	292.84967	274.83813	148.04979	157.11438	
409	4.080	273.38452	149.82878	292.87036	274.79605	148.02959	157.14452	
410	4.090	273.49170	149.81287	292.82318	274.83389	148.05423	157.11664	
411	4.100	273.44873	149.81682	292.84573	274.81168	148.02736	157.12320	
412	4.110	273.37784	149.83018	292.87268	274.78937	148.01871	157.13524	
413	4.120	273.49170	149.81287	292.82318	274.78964	148.02544	157.12753	
414	4.130	273.50494	149.81198	292.81573	274.77094	148.01328	157.13213	
415	4.140	273.47485	149.81546	292.83047	274.81552	148.04228	157.12115	
416	4.150	273.50494	149.81198	292.81573	274.84201	148.06110	157.10333	
417	4.160	273.49811	149.81342	292.81812	274.77670	148.01744	157.12791	
418	4.170	273.49472	149.81413	292.81931	274.78806	148.02196	157.12813	
419	4.180	273.45563	149.81918	292.83765	274.79904	148.01662	157.12651	
420	4.190	273.45825	149.81509	292.84201	274.80850	148.00772	157.12550	
421	4.200	273.44095	149.81488	292.85379	274.81168	148.02736	157.12320	
422	4.210	273.40131	149.81992	292.87250	274.77612	148.04079	157.14142	
423	4.220	273.41949	149.81891	292.86194	274.81430	148.01208	157.12973	
424	4.230	273.40540	149.82430	292.86325	274.79803	148.04965	157.13365	
425	4.240	273.42004	149.82089	292.85864	274.77094	148.01328	157.13213	
426	4.250	273.44791	149.81824	292.84415	274.78592	148.02301	157.12843	
427	4.260	273.48383	149.81389	292.82687	274.79596	148.00963	157.12772	
428	4.270	273.50494	149.81198	292.81573	274.78217	148.02057	157.12936	
429	4.280	273.46674	149.81842	292.83139	274.77231	148.01442	157.12991	
430	4.290	273.47128	149.81715	292.83029	274.78845	148.00475	157.12956	
